<svg version="1" xmlns="http://www.w3.org/2000/svg" width="346.667" height="346.667" viewBox="0 0 260 260"><path d="M78.6 1.5C66.9 3 44.2 7.3 36.9 9.4l-4.4 1.3-.3 88.4c-.2 85.7-.2 88.6 1.8 96.4 4.7 18.7 14 25.4 50.5 36.4 11 3.2 22.5 6.9 25.6 8 6.9 2.6 12.5 7.4 16.4 14 1.7 2.8 3.2 5 3.5 5 .3 0 2.2-2.6 4.2-5.9 2-3.2 5.4-7.2 7.6-8.7 4.2-3.1 16.4-7.4 39.7-14.3 30.3-8.9 40.6-17.2 45-36.5 1.3-5.4 1.5-19.5 1.3-94.7l-.3-88.2-8.6-2.2c-4.7-1.2-14.1-3.1-21-4.3-6.8-1.1-14-2.3-15.9-2.7-1.9-.4-23.5-.8-48-1-33.1-.2-47.3.1-55.4 1.1zM166 9.4c1.9.2 6.7.7 10.5 1.1 8 .7 33.1 5 38.8 6.6l3.8 1-.3 86.7-.3 86.7-2.2 5.5c-4.7 11.6-14.6 17.7-40.3 25-25.2 7.2-36.7 11.7-42.7 17.1l-3.5 3-3.9-3.6c-5.4-4.8-12.1-7.6-33.9-14.1-36-10.7-43.1-14.7-48.3-27.4l-2.2-5.5-.3-86.7-.3-86.7 3.8-1c2.1-.5 5.2-1.2 6.8-1.5 6.3-1.3 8.1-1.6 11-2.1 1.7-.3 3.7-.8 4.5-1 .8-.2 4.7-.7 8.5-1.1 3.9-.3 7.2-.8 7.5-.9.3-.2 5.7-.6 12-1s11.7-.9 11.9-1.1c.5-.5 55.1.4 59.1 1z"/><path d="M158.5 21.2c-1.1.6-2.6 1.9-3.3 2.9-.7 1-4.8 4.3-9.1 7.3-7.4 5.2-7.9 5.8-7.9 9.2 0 3.1.4 3.8 3.1 4.9 2.7 1.1 3.7 1.1 7-.2 2.1-.9 4-1.3 4.3-1 .7.7-4.1 10.8-6.5 13.5l-2.1 2.4-3-2.2-3-2.2-6.8 2.6c-6.6 2.6-6.9 2.8-10.6 9.6-2 3.8-3.1 6.8-2.4 6.6.7-.3 4.4-.7 8.2-1.1 3.8-.3 7.2-.7 7.4-1 .3-.2-.1-1.1-.8-2-1.5-1.9-.6-4.5 1.6-4.5.9 0 2.2.7 2.9 1.7 1 1.3.9 1.9-.5 3.3-2.5 2.5-2.6 18.7-.1 26.5l1.9 5.9 3.4-5.4c6.2-9.7 6.2-9.9 3.4-11-2.5-.9-2.5-.9-1-5.4l1.5-4.5 8.2 3.5c4.5 2 8.5 3.8 8.8 4.2.4.4 1.2 2.5 1.9 4.6 1.2 3.8 1.2 4-2.1 6.8-9.1 8-14.1 12.8-13.3 12.9.5 0 4.1.1 8 .2 5.4.1 7.1.4 6.7 1.4-.3.7-.9 1.3-1.3 1.3s-1 .6-1.3 1.2c-.3 1 2 1.3 9.8 1.3 9.4 0 10.2-.2 9.4-1.7-.5-.9-1.4-2-1.9-2.3-1.9-1.2-1-2.3 4.6-5.4 4-2.4 5.4-3.6 5-4.9-2.8-9.6-2.8-10.1-.3-13.5 1.9-2.5 2.3-4.1 2-7.4-.5-4.1-.5-4.2 4.5-6.7 3.3-1.7 5.1-3.2 5-4.3 0-1 .3-3.8.6-6.3s.9-6.6 1.2-9.2c.5-4 1.2-5.3 4.7-8.3l4.2-3.5h-14.3l-4.4 5.2c-2.3 2.9-4.8 5.9-5.5 6.5-.9 1-.8 2.6.2 7 1.7 7 .7 8.6-3.4 5.5-1.8-1.3-3.8-1.9-5.3-1.7-2.7.6-10.8-3.2-10.3-4.9.3-.6.6-2.9.9-5.1.2-2.2.9-7.4 1.6-11.6 1.4-8.5 1.3-8.8-4.9-17.2-3.8-5.2-3.8-5.1-6.6-3.5zm5.4 7.9c3.2 3.9 3.3 4.3 2.7 10.2-.3 3.4-.8 7.3-1.1 8.7-.3 1.4-.8 4.7-1.1 7.5-.3 2.7-.8 5.2-1 5.4-.9 1 9.8 6.1 12.8 6.1 3.4 0 9.8 4.8 9.8 7.3.1.7.3 2.8.6 4.8.4 3 .1 4-2.7 6.7-2.3 2.3-2.9 3.5-2.2 4.4.6.7 1.5 3.2 2 5.5 1.2 4.8 1.2 4.9-5.7 8.3l-4.5 2.2 3.9-4.1 4-4.1-3.5-6.5c-3.1-5.9-3.9-6.6-8.9-8.7-3-1.2-7.7-3.1-10.5-4.3-2.7-1.2-6.9-3-9.2-3.9-2.3-1-4.6-1.6-5.1-1.2-.5.3-1.8 3.3-2.8 6.6-1 3.3-2.1 6-2.5 6-.4 0-.6-.8-.4-1.8.2-.9.4-3.6.4-5.9.1-2.3.7-4.7 1.4-5.2.6-.6 2.7-2.2 4.4-3.7l3.3-2.6 1 2.4c.7 1.7.8.7.4-3.5-.4-4.4-.2-6.3.9-7.5.9-.9 3.2-5.5 5.2-10.2 2.1-4.7 4.2-9.1 4.7-9.8 1.4-1.7 1-1.6-7.9 1.7-4.3 1.5-8.4 2.6-9 2.4-2.8-1-.9-4 5.2-8.2 3.5-2.4 7.4-5.4 8.6-6.7 1.2-1.3 2.5-2.4 2.8-2.4.3 0 2.1 1.9 4 4.1zm35.2 17.6c-.5 1-.9 2.1-.9 2.6 0 2.3-1.4 15.5-1.8 17-.3.9-2.3 2.6-4.4 3.7-5.1 2.6-6.2 2.5-2.8-.3l2.7-2.2-1.4-6c-1.4-5.9-1.4-6 1.3-9.5 4.5-5.9 5.6-7 7-7 .9 0 1 .5.3 1.7zm-55.6 19.2c-1.4 1.4-1.8 1.3-4.1-1.1-2.6-2.6-2.7-2.6-7.3-1.1-5.7 2-5.5 1.7-4.1 4.2.6 1.2.7 2.1.3 2.2-.4 0-1.8.2-3 .5-2.8.5-2.9-.2-.3-4.1 1.2-1.9 3.9-3.8 7.2-5.1l5.3-2 3.8 2.4c3.4 2.3 3.6 2.7 2.2 4.1zm27.3 22.3c.7.7 1.2 2.6 1.2 4.4 0 2.7-.9 3.8-5.5 7.3-3.1 2.3-5.3 4.6-5 5.2.4.5-.4.9-1.7.9-1.9 0-1.3-.9 4.1-5.8l6.3-5.7-1-3.8c-1.1-3.8-.5-4.6 1.6-2.5zm-28.5 1.4c.6.7-1.4 4.4-2.4 4.4-.4 0-.9-1.1-1.1-2.5-.4-1.9-.1-2.5 1.2-2.5.9 0 1.9.3 2.3.6zm30.2 12.4c-3.1 3.2-5.2 4.6-5.6 3.8-.4-.6 1.2-2.7 3.9-4.9 6.6-5.3 7.5-4.8 1.7 1.1zm1.3 7.8c.2.6-.6 1-1.7.9-2.2-.1-2.6-.8-1.4-2.1.9-.9 2.6-.3 3.1 1.2z"/><path d="M156 32c0 1.5.5 2 1.8 1.8.9-.2 1.7-1 1.7-1.8s-.8-1.6-1.7-1.8c-1.3-.2-1.8.3-1.8 1.8zm-90 4.7c-8.2 6.3-12.4 9.8-15.9 12.9l-3.4 3.1 6.9-.8c3.7-.5 7.1-.5 7.5-.1.3.4 1.3 2.5 2.2 4.7l1.5 4.1-4.4 4.9C58 68.3 56 70.8 56 71.2c0 .7 7.1 21.6 8.9 26.1 1.6 4.2 1.5 4.8-3.4 10.7-2.5 3-4.5 5.7-4.5 6.1 0 .3 13.3.6 29.6.6h29.6l-6.5-6.4-6.4-6.4 5.4-14.6c2.9-8.1 5.3-15.2 5.3-15.9 0-.7-2-3.4-4.4-6l-4.5-4.7 1.6-4.1c.9-2.3 1.9-4.5 2.3-4.9.4-.5 3.7-.4 7.4.1 3.6.5 6.6.6 6.6.3-.1-.3-5.3-4.7-11.6-9.6l-11.6-9-5.1.4c-8 .7-12.7.6-18.7-.1-5.2-.6-5.7-.5-10 2.9zm18.5 1.6c.6 0 3.8-.3 7.3-.7 6.6-.7 8-.1 14.7 5.6 1.1.9 2.9 2.4 4 3.2 1.8 1.3 1.7 1.4-2.2 1-3.6-.3-4.1-.2-3.6 1.5.3 1.1-.4 4.4-1.5 7.3l-2 5.3 4.4 5c2.4 2.7 4.4 5.4 4.4 5.9 0 1.3-8.1 23.9-8.9 24.8-.4.4-.7-1.8-.8-5-.2-13.1-.3-15.5-.7-15.1-.2.2-.6 5.7-1 12.2L98 101l4.6 5 4.7 5H63.8l3.7-4.6c2.6-3.2 3.8-5.6 3.8-7.8 0-10.5-.4-16.8-1-16.2-.9.8-1 1.8-1.2 10.3l-.2 5.8-4.4-12.9C62 78.5 60 72.4 60 72c0-.3 2-3 4.5-5.8l4.4-5.3-2-4.7c-1.1-2.6-1.8-5.7-1.6-7 .4-2.1.2-2.2-2.9-1.7-1.9.2-3.4.2-3.4-.3.1-.4 2.9-2.9 6.3-5.5l6.2-4.9 6 .7c3.3.4 6.5.7 7 .8z"/><path d="M71.8 46.2c-.8.7-1.8 2.3-2.1 3.6-1.2 5 6.8 8.5 9.5 4.2 1.8-2.8 2.3-2.5 3.7 2.1 1.4 4.5 2.2 4.3 4-1 .9-2.8.8-3.9-.5-5.9l-1.6-2.4-1.4 2.1c-1.5 2.1-4.1 3-2.9 1 1-1.5-2.4-4.9-5-4.9-1.1 0-2.8.6-3.7 1.2zm6.3 2.4c1.7 2.1 0 4.9-3.2 4.9-2.4 0-3.6-2.3-2.5-5.1.7-1.9 4-1.8 5.7.2z"/><path d="M73.3 49.6c-.9 2.3 1.3 4 3.2 2.4 1.2-1 1.3-1.6.4-2.6-1.5-1.8-2.8-1.8-3.6.2zm17.4-2.8c-3.3 3.6-.8 9.2 4 9.2 2.5 0 5.3-3 5.3-5.7 0-4.6-6.2-6.9-9.3-3.5zm5.7.8c2 .8 2.1 3.8.1 5.4-3 2.5-7-1.5-4.5-4.5 1.4-1.7 2.1-1.8 4.4-.9z"/><path d="M93 49c-1.3.8-1.3 1.2.3 2.7 1.5 1.6 1.9 1.6 2.7.3 1.8-2.8-.2-4.8-3-3zM69 80c0 .5.5 1 1 1 .6 0 1-.5 1-1 0-.6-.4-1-1-1-.5 0-1 .4-1 1zm52 46.3c-4.2 1.1-4.5 1.4-4.8 4.9l-.3 3.8-2.3-2.7-2.3-2.6-4.7 3.3c-3.6 2.7-4.5 3.8-4 5.4 1.8 6.3 1.9 5.9-1.5 4.1l-3.1-1.6-3 4.8c-1.7 2.6-3 5-3 5.4 0 .3.9 1.8 2.1 3.3l2 2.6h-3.4c-3.8 0-3.7-.2-5.2 9-.5 3.2-.3 3.7 2.7 5.4l3.3 1.9-3.2 1c-4.6 1.4-4.5 4.5.3 17.7.3 1 1.1.1 2.3-2.5 5.2-11.3 17.1-13.8 26.4-5.7 1.4 1.3 1.7 3.3 1.7 12.1v10.5l-4.2 4.3-4.1 4.2h16.6c9.2 0 16.7-.2 16.7-.5 0-.2-1.6-2-3.5-3.8l-3.5-3.4v-10.9c0-10.1.2-11.1 2.3-12.9 5.3-4.8 12.8-5.7 18.3-2.4 3.1 2 7.4 8.9 7.4 12 0 4 4.9-7.6 5.7-13.5.4-3 .1-3.6-2.7-5l-3.2-1.7 3.1-1.9c3.5-2.1 3.5-1.8 1.8-8.4-1.2-4.6-1.6-5-4.5-5.3l-3.2-.3 2.2-2.9 2.1-2.9-3.2-5-3.3-5.1-2.9 1.5c-3.1 1.6-3.5 1.1-2-2.8.8-2.1.5-2.9-1.7-4.9-5.9-5.3-6-5.3-8.7-2.8l-2.5 2.3-.1-2.4c-.1-1.3-.1-2.7 0-3.2.2-1-4.1-2.6-8.4-3-3-.4-3.5-.1-4.5 2.7l-1.1 3.1-1.4-3.3c-.8-1.7-1.8-3.2-2.2-3.1-.4 0-2.8.6-5.3 1.2zm6.3 8.5c1.1 2.9 2.2 5.2 2.6 5.2.3 0 1.5-2.4 2.7-5.3 1.7-4.4 2.4-5.2 4.4-4.9 3.3.3 3.3.5 3.2 6.7 0 3 .3 5.7.7 6 .4.2 2.2-1.4 4-3.5 3.6-4.4 4.6-4.7 7.2-2.4 1.6 1.4 1.6 1.8-.2 6.7-2.8 7.5-2.6 7.8 3.1 5.1 2.7-1.3 5.2-2.4 5.5-2.4.2 0 1.1 1.2 1.9 2.7 1.3 2.6 1.2 3-2 6.9-1.9 2.2-3.4 4.4-3.4 4.8 0 .3 2.5.6 5.5.6 3.7 0 5.5.4 5.6 1.2 0 .7.2 2.2.4 3.3.3 1.5-.8 2.7-4.8 4.9l-5.2 2.9 5.3 2.4c5.1 2.4 5.8 3.5 4.6 6.7-.5 1.3-1.3.9-3.9-1.9-6.8-6.9-19.2-6.6-26.1.6-2.8 3-2.9 3.2-3 15.4-.1 6.9.2 12.5.7 12.5.5 0 .9.4.9 1s-3.2 1-7.5 1H122l1.3-2.3c1-1.5 1.4-5.5 1.3-13.6l-.2-11.4-3.7-3.2c-7.6-6.6-19.4-6.7-25.7-.3-3.3 3.3-3.6 3.3-4.2.3-.2-1.6.8-2.5 5-4.4 2.8-1.4 5.2-2.7 5.2-3-.1-.3-2.3-1.6-5-2.9-3.8-1.8-5-2.9-5-4.5 0-3.7 1.3-4.6 6.9-4.9l5.3-.3-3.7-4.8c-3.5-4.6-3.6-4.9-2.1-7.2.9-1.4 1.9-2.5 2.2-2.5.2 0 2.7 1.1 5.4 2.5 2.8 1.4 5 2.2 5 1.7 0-.4-.9-3.2-1.9-6.2-1.8-5-1.8-5.7-.4-7.3 2.3-2.5 3.2-2.2 7.4 2.5s3.9 4.9 4.3-4c.4-7.8 5-8 7.9-.4z"/><path d="M121.5 136.9c-.5 3.1-.2 4.6 1.2 6.5 2.2 3.1 2.9 3.2 3.7.3 1.1-4.1.6-6.3-1.8-8.6l-2.4-2.3-.7 4.1zm3.5 3.2c0 1.1-.4 1.7-1 1.4-.5-.3-1-1.3-1-2.1s.5-1.4 1-1.4c.6 0 1 .9 1 2.1zm9.2-4.2c-1.6 2.2-2 3.8-1.6 6.1.9 4.2 1.9 4.5 4.3 1.2 1.7-2.5 1.9-3.5 1-6.5-.5-2.1-1.1-3.7-1.3-3.7-.1 0-1.2 1.3-2.4 2.9zm1.9 4.4c-1.3 1.3-2.6.3-1.6-1.2.3-.6 1.1-.8 1.7-.5.6.4.6 1-.1 1.7zm-22.5 2.8c-1.7 8.6-1.6 9.5 2.3 13.3l3.8 3.7 1-5c1.1-5.3 1.1-5.3-4.9-12.3-1.7-2-1.7-2-2.2.3zm4.9 9.9c-.7 2.1-.7 2.1-2 .2-.8-1-1.3-2.9-1.2-4.1.1-2.1.2-2.1 2-.2 1.3 1.3 1.7 2.5 1.2 4.1zm23.5-7c-2.7 3.5-3.1 4.6-2.6 8.1.8 6 1.4 6.3 5.2 2.4 2.7-2.8 3.3-4.1 3-6.8-.2-1.7-.4-4.2-.5-5.5-.1-3.2-1.5-2.7-5.1 1.8zm1.6 7.8c-1.5 1.5-1.6 1.4-1.6-1.4 0-1.6.6-3.6 1.3-4.3 1-1 1.3-.7 1.5 1.5.2 1.5-.3 3.4-1.2 4.2zm-17.3 1.4l-3.1 7.2 3.5 7.1 3.6 7 3.5-7.2 3.6-7.2-2.3-4.8c-1.2-2.6-3-5.8-3.9-7.1-1.8-2.3-1.8-2.3-4.9 5zm5.8 10.5l-1.9 3.8-1.8-3.8c-1.7-3.6-1.7-3.8 0-7.4l1.8-3.8 1.9 3.8c1.9 3.6 1.9 3.8 0 7.4zM101 150.4c0 .2.7 1.9 1.5 3.9 1.1 2.6 2.2 3.7 4.5 4.2 1.8.4 3.4.5 3.6.2 1.3-1.2-2.8-6.6-5.7-7.6-3.5-1.2-3.9-1.3-3.9-.7zm6 4.1c1 1.2 1 1.5-.4 1.5-.9 0-1.6-.7-1.6-1.5s.2-1.5.4-1.5.9.7 1.6 1.5zm48.2-3.4c-1.8.3-3.4.8-3.5 1-1 1.4-2.7 6.2-2.4 6.5.2.2 1.8.1 3.5-.2 2.2-.5 3.5-1.6 4.7-4.1.9-1.9 1.5-3.6 1.3-3.7-.1-.2-1.8.1-3.6.5zm-.2 3.4c0 .8-.7 1.5-1.6 1.5-1.4 0-1.4-.3-.4-1.5.7-.8 1.4-1.5 1.6-1.5.2 0 .4.7.4 1.5zm-52.5 9.5l-6 2.8 5.9 2.6c3.2 1.4 6.2 2.6 6.6 2.6.5 0 3.1-1.1 6-2.4l5.2-2.4-5.3-3.1c-3-1.7-5.6-3-5.9-3-.3 0-3.2 1.3-6.5 2.9zm9.4 1.4l2.4 1.3-2.2 1.2c-2.2 1.2-8.1.6-8.1-.8 0-.7 3.7-2.9 5-3 .3 0 1.6.6 2.9 1.3zm34.9-1.6c-2.7 1.5-4.8 3.1-4.8 3.5 0 .8 8.4 4.7 10.1 4.7.6 0 3.6-1.2 6.6-2.7l5.7-2.6-6-2.8c-3.2-1.5-6.1-2.8-6.4-2.8-.3 0-2.6 1.2-5.2 2.7zm7.7 1.4c1.4.6 2.5 1.5 2.5 1.9 0 1.4-5.9 2-8.1.8l-2.2-1.2 2.4-1.3c3-1.6 2.3-1.6 5.4-.2zm-36.5 6.4c0 .3.6 2 1.4 3.8 1 2.5 2.2 3.6 4.6 4.1 4 .9 4.5.3 2.6-3.2-.9-1.9-2.7-3.3-5-4-2-.6-3.6-.9-3.6-.7zm6.5 4.4c.3.5-.1 1-.9 1-.9 0-1.6-.5-1.6-1 0-.6.4-1 .9-1 .6 0 1.3.4 1.6 1zm13.7-3.6c-3.4 1.2-4.4 2.3-5.6 6.3-.6 2-.5 2.1 3.2 1.1 3.1-.8 4.1-1.6 5.1-4.5.7-1.9 1.1-3.6.9-3.7-.1-.2-1.8.2-3.6.8zm-.2 4.1c-.7.8-1.6 1.5-2.1 1.5s-.6-.7-.3-1.5c.4-.8 1.3-1.5 2.1-1.5 1.3 0 1.3.3.3 1.5z"/></svg>
